# xmcd
#
# Track frame offsets:
# 150
# 11921
# 29545
# 45707
# 61646
# 72040
# 93691
# 117216
# 135878
# 150054
# 166620
# 187719
# 207851
# 222410
# 237109
# 256454
# 276252
# 293640
# 309258
#
# Disc length: 4365 seconds
#
#
# Revision: 0
# Processed by: cddbd v1.5.1PL0 Copyright (c) Steve Scherf et al.
# Submitted via: FreeRIP 2.70 
#
DISCID=f6110b13
DTITLE=Calcinha Preta - Ao Vivo em Natal - A Mocada eh So File
DYEAR=1900
DGENRE=
TTITLE0=Abertura
TTITLE1=Saudade
TTITLE2=Desilusao
TTITLE3=E seu Amor que Eu Quero
TTITLE4=Vem Comigo
TTITLE5=Amor, Amor, Amor/Noite, Noite, Noite
TTITLE6=Jura que Me Ama
TTITLE7=Onde o Sonho Mora
TTITLE8=Amor e Paixao
TTITLE9=Eterno Amor/Mesmo Assim/Amor Amigo
TTITLE10=A Coisa Mais Linda/Bebida Danada
TTITLE11=A Mocada e So o File
TTITLE12=Ela e Demais
TTITLE13=Mais uma Vez
TTITLE14=Sozinha
TTITLE15=Agente se Ama
TTITLE16=So Voce
TTITLE17=Na Hora de Amar
TTITLE18=Um Sonhador
EXTD=
EXTT0=
EXTT1=
EXTT2=
EXTT3=
EXTT4=
EXTT5=
EXTT6=
EXTT7=
EXTT8=
EXTT9=
EXTT10=
EXTT11=
EXTT12=
EXTT13=
EXTT14=
EXTT15=
EXTT16=
EXTT17=
EXTT18=
PLAYORDER=
